<svg width="146" height="15" viewBox="0 0 146 15" fill="none" xmlns="http://www.w3.org/2000/svg">
<g filter="url(#filter0_b_673_62)">
<path d="M0.5041 6.55985C-0.0340098 6.99235 -0.11965 7.77915 0.31282 8.31725C0.74529 8.85535 1.5321 8.94105 2.07021 8.50855L0.5041 6.55985ZM2.07021 8.50855L7.0588 4.49933L5.49269 2.55066L0.5041 6.55985L2.07021 8.50855Z" fill="#5CC4C4"/>
<path d="M1.88202 6.47434C1.28635 6.12544 0.520581 6.32544 0.171641 6.92114C-0.177309 7.51674 0.0227012 8.28254 0.618371 8.63144L1.88202 6.47434ZM0.618371 8.63144L6.14335 11.868L7.40695 9.71084L1.88202 6.47434L0.618371 8.63144Z" fill="#5CC4C4"/>
<path d="M6.42266 9.93638L5.65918 10.9261L7.63856 12.4532L8.40216 11.4635L6.42266 9.93638ZM8.40216 11.4635L14.1167 4.05598L12.1373 2.52893L6.42266 9.93638L8.40216 11.4635Z" fill="#5CC4C4"/>
<path d="M13.1672 1.20886L13.8159 2.81831L12.1006 2.57765L13.1672 1.20886Z" fill="#5CC4C4"/>
<path d="M13.6288 2.40454L14.137 4.06372L12.4487 3.67676L13.6288 2.40454Z" fill="#5CC4C4"/>
<path d="M12.1421 2.57581L13.6262 2.71814L12.8209 3.9032L12.1421 2.57581Z" fill="#5CC4C4"/>
<path d="M22.4584 7.2656H20.8984V11.25H18.8403V0.58594H22.4145C23.0053 0.58594 23.54 0.65674 24.0185 0.79834C24.497 0.93506 24.9072 1.1377 25.249 1.40625C25.5859 1.6748 25.8447 2.00928 26.0253 2.40967C26.2109 2.81006 26.3037 3.27393 26.3037 3.80127C26.3037 4.18213 26.2573 4.52637 26.1645 4.83398C26.0766 5.13672 25.9497 5.4077 25.7836 5.647C25.6127 5.8911 25.4077 6.1035 25.1684 6.2842C24.934 6.4648 24.6704 6.6211 24.3774 6.7529L26.6699 11.1548V11.25H24.4653L22.4584 7.2656ZM20.8984 5.5957H22.4218C22.7392 5.5957 23.0175 5.5518 23.2568 5.4639C23.5009 5.3711 23.6987 5.23926 23.85 5.06836C23.977 4.93164 24.0722 4.76807 24.1357 4.57764C24.204 4.38721 24.2382 4.1748 24.2382 3.94043C24.2382 3.65723 24.1943 3.4082 24.1064 3.19336C24.0234 2.97363 23.8964 2.79297 23.7255 2.65137C23.5742 2.52441 23.3886 2.42676 23.1689 2.3584C22.9492 2.29004 22.6977 2.25586 22.4145 2.25586H20.8984V5.5957ZM32.8735 11.25C32.8247 11.1523 32.7831 11.04 32.749 10.9131C32.7148 10.7861 32.6855 10.6519 32.6611 10.5103C32.5488 10.6323 32.4194 10.7471 32.2729 10.8545C32.1264 10.9619 31.9653 11.0547 31.7895 11.1328C31.6088 11.2158 31.4111 11.2793 31.1962 11.3232C30.9814 11.3721 30.7495 11.3965 30.5004 11.3965C30.0952 11.3965 29.7216 11.3379 29.3798 11.2207C29.0429 11.1035 28.7524 10.9399 28.5082 10.73C28.2641 10.52 28.0737 10.271 27.937 9.9829C27.8002 9.6899 27.7319 9.3726 27.7319 9.0308C27.7319 8.5913 27.8173 8.2031 27.9882 7.8662C28.1591 7.5244 28.4155 7.2437 28.7573 7.0239C29.0649 6.8237 29.4433 6.6724 29.8925 6.5698C30.3466 6.4624 30.8666 6.4087 31.4526 6.4087H32.5878V5.9399C32.5878 5.7544 32.5585 5.5884 32.4999 5.4419C32.4414 5.2905 32.3535 5.16113 32.2363 5.05371C32.1142 4.94141 31.9604 4.85596 31.7748 4.79736C31.5942 4.73389 31.3818 4.70215 31.1376 4.70215C30.9228 4.70215 30.7373 4.729 30.581 4.78271C30.4248 4.83154 30.2978 4.90234 30.2001 4.99512C30.1123 5.07812 30.0463 5.17822 30.0024 5.2954C29.9633 5.4126 29.9438 5.542 29.9438 5.6836H27.9077C27.9077 5.3467 27.9809 5.02686 28.1274 4.72412C28.2788 4.42139 28.4985 4.15527 28.7866 3.92578C29.0698 3.69629 29.4165 3.51562 29.8266 3.38379C30.2416 3.24707 30.7153 3.17871 31.2475 3.17871C31.726 3.17871 32.1704 3.2373 32.5805 3.35449C32.9956 3.47168 33.3544 3.64502 33.6572 3.87451C33.9599 4.104 34.1967 4.39453 34.3676 4.74609C34.5385 5.09277 34.624 5.4956 34.624 5.9546V9.353C34.624 9.7778 34.6508 10.1294 34.7045 10.4077C34.7582 10.686 34.8364 10.9253 34.9389 11.1255V11.25H32.8735ZM30.9326 9.8218C31.1376 9.8218 31.3281 9.7974 31.5039 9.7485C31.6796 9.6997 31.8383 9.6362 31.9799 9.5581C32.1215 9.48 32.2436 9.3921 32.3461 9.2944C32.4487 9.1919 32.5292 9.0894 32.5878 8.9868V7.6245H31.5478C31.2304 7.6245 30.9594 7.6562 30.7348 7.7197C30.5102 7.7783 30.3271 7.8613 30.1855 7.9688C30.0439 8.0811 29.9389 8.2153 29.8706 8.3716C29.8022 8.5229 29.768 8.689 29.768 8.8696C29.768 9.0112 29.7924 9.1431 29.8413 9.2651C29.895 9.3823 29.9707 9.4824 30.0683 9.5654C30.166 9.6436 30.2856 9.707 30.4272 9.7559C30.5737 9.7998 30.7421 9.8218 30.9326 9.8218ZM36.9604 14.2969V3.3252H38.8427L38.916 4.10156C39.0234 3.96973 39.1406 3.85254 39.2675 3.75C39.3945 3.64258 39.5312 3.5498 39.6777 3.47168C39.8535 3.37891 40.0463 3.30811 40.2563 3.25928C40.4711 3.20557 40.7006 3.17871 40.9448 3.17871C41.4477 3.17871 41.892 3.27637 42.2778 3.47168C42.6635 3.66211 42.9882 3.93311 43.2519 4.28467C43.5156 4.64111 43.7133 5.06836 43.8452 5.5664C43.9819 6.0596 44.0502 6.6064 44.0502 7.207V7.3608C44.0502 7.937 43.9819 8.4717 43.8452 8.9648C43.7133 9.458 43.518 9.8828 43.2592 10.2393C42.9956 10.6006 42.6708 10.8838 42.2851 11.0889C41.8994 11.2939 41.4575 11.3965 40.9594 11.3965C40.6957 11.3965 40.4516 11.3672 40.227 11.3086C40.0073 11.2549 39.8022 11.1743 39.6118 11.0669C39.4995 10.9985 39.392 10.9229 39.2895 10.8398C39.187 10.7568 39.0893 10.6641 38.9965 10.5615V14.2969H36.9604ZM42.0141 7.207C42.0141 6.875 41.9824 6.5649 41.9189 6.2769C41.8603 5.9839 41.7675 5.73 41.6406 5.5151C41.5087 5.3052 41.3403 5.13916 41.1352 5.01709C40.935 4.89502 40.6909 4.83398 40.4028 4.83398C40.2368 4.83398 40.0854 4.85107 39.9487 4.88525C39.812 4.91455 39.6874 4.9585 39.5751 5.01709C39.4482 5.08545 39.3359 5.1709 39.2382 5.2734C39.1455 5.376 39.0649 5.4956 38.9965 5.6323V8.9429C39.06 9.0698 39.1357 9.1846 39.2236 9.2871C39.3164 9.3896 39.4213 9.4775 39.5385 9.5508C39.6508 9.6191 39.7802 9.6729 39.9267 9.7119C40.0732 9.7461 40.2368 9.7632 40.4174 9.7632C40.7055 9.7632 40.9497 9.6997 41.1498 9.5728C41.3549 9.4458 41.5209 9.2725 41.6479 9.0527C41.7748 8.833 41.8676 8.5791 41.9262 8.291C41.9848 7.998 42.0141 7.688 42.0141 7.3608V7.207ZM47.976 4.4165C48.0786 4.26514 48.1909 4.12598 48.3129 3.99902C48.4399 3.86719 48.5717 3.75244 48.7084 3.65479C48.9184 3.50342 49.1503 3.38623 49.4042 3.30322C49.6581 3.22021 49.9267 3.17871 50.2099 3.17871C50.6249 3.17871 51.0058 3.24219 51.3525 3.36914C51.6992 3.49121 51.997 3.68408 52.246 3.94775C52.4951 4.21143 52.6879 4.55078 52.8247 4.96582C52.9663 5.376 53.0371 5.8716 53.0371 6.4526V11.25H51.0009V6.438C51.0009 6.1548 50.9643 5.9106 50.8911 5.7056C50.8227 5.5005 50.7226 5.3345 50.5908 5.20752C50.4589 5.08057 50.3002 4.98779 50.1147 4.9292C49.9291 4.86572 49.7192 4.83398 49.4848 4.83398C49.3041 4.83398 49.1357 4.85107 48.9794 4.88525C48.8232 4.91943 48.6816 4.9707 48.5546 5.03906C48.4374 5.09766 48.33 5.16846 48.2324 5.2515C48.1396 5.3345 48.0541 5.4272 47.976 5.5298V11.25H45.9399V0H47.976V4.4165ZM59.8998 11.25C59.851 11.1523 59.8095 11.04 59.7753 10.9131C59.7412 10.7861 59.7119 10.6519 59.6874 10.5103C59.5751 10.6323 59.4457 10.7471 59.2993 10.8545C59.1528 10.9619 58.9916 11.0547 58.8159 11.1328C58.6352 11.2158 58.4374 11.2793 58.2226 11.3232C58.0078 11.3721 57.7758 11.3965 57.5268 11.3965C57.1215 11.3965 56.748 11.3379 56.4062 11.2207C56.0693 11.1035 55.7788 10.9399 55.5346 10.73C55.2905 10.52 55.1 10.271 54.9633 9.9829C54.8266 9.6899 54.7582 9.3726 54.7582 9.0308C54.7582 8.5913 54.8437 8.2031 55.0146 7.8662C55.1855 7.5244 55.4418 7.2437 55.7836 7.0239C56.0913 6.8237 56.4697 6.6724 56.9189 6.5698C57.373 6.4624 57.893 6.4087 58.479 6.4087H59.6142V5.9399C59.6142 5.7544 59.5849 5.5884 59.5263 5.4419C59.4677 5.2905 59.3798 5.16113 59.2626 5.05371C59.1406 4.94141 58.9868 4.85596 58.8012 4.79736C58.6206 4.73389 58.4081 4.70215 58.164 4.70215C57.9492 4.70215 57.7636 4.729 57.6074 4.78271C57.4511 4.83154 57.3242 4.90234 57.2265 4.99512C57.1386 5.07812 57.0727 5.17822 57.0288 5.2954C56.9897 5.4126 56.9702 5.542 56.9702 5.6836H54.934C54.934 5.3467 55.0073 5.02686 55.1538 4.72412C55.3051 4.42139 55.5248 4.15527 55.8129 3.92578C56.0961 3.69629 56.4428 3.51562 56.853 3.38379C57.268 3.24707 57.7416 3.17871 58.2739 3.17871C58.7524 3.17871 59.1967 3.2373 59.6069 3.35449C60.0219 3.47168 60.3808 3.64502 60.6835 3.87451C60.9863 4.104 61.2231 4.39453 61.394 4.74609C61.5649 5.09277 61.6503 5.4956 61.6503 5.9546V9.353C61.6503 9.7778 61.6772 10.1294 61.7309 10.4077C61.7846 10.686 61.8627 10.9253 61.9653 11.1255V11.25H59.8998ZM57.9589 9.8218C58.164 9.8218 58.3544 9.7974 58.5302 9.7485C58.706 9.6997 58.8647 9.6362 59.0063 9.5581C59.1479 9.48 59.27 9.3921 59.3725 9.2944C59.475 9.1919 59.5556 9.0894 59.6142 8.9868V7.6245H58.5742C58.2568 7.6245 57.9858 7.6562 57.7612 7.7197C57.5366 7.7783 57.3535 7.8613 57.2119 7.9688C57.0703 8.0811 56.9653 8.2153 56.8969 8.3716C56.8286 8.5229 56.7944 8.689 56.7944 8.8696C56.7944 9.0112 56.8188 9.1431 56.8676 9.2651C56.9213 9.3823 56.997 9.4824 57.0947 9.5654C57.1923 9.6436 57.312 9.707 57.4536 9.7559C57.6 9.7998 57.7685 9.8218 57.9589 9.8218ZM67.8027 11.3965C67.1923 11.3965 66.6381 11.2964 66.1401 11.0962C65.642 10.896 65.2148 10.6226 64.8583 10.2759C64.5019 9.9341 64.226 9.5312 64.0307 9.0674C63.8403 8.5986 63.7451 8.0981 63.7451 7.5659V7.2729C63.7451 6.6675 63.8403 6.1157 64.0307 5.6177C64.2211 5.11475 64.4873 4.68262 64.829 4.32129C65.1708 3.95996 65.5761 3.6792 66.0449 3.479C66.5136 3.27881 67.0239 3.17871 67.5756 3.17871C68.1469 3.17871 68.6547 3.27393 69.0991 3.46436C69.5483 3.6499 69.9291 3.91357 70.2416 4.25537C70.5493 4.59717 70.7836 5.00977 70.9448 5.4932C71.1059 5.9717 71.1865 6.5015 71.1865 7.0825V7.9468H65.8105V7.9688C65.8789 8.2861 65.9667 8.5425 66.0742 8.7378C66.1816 8.9282 66.3256 9.1016 66.5063 9.2578C66.6918 9.4189 66.9042 9.5435 67.1435 9.6313C67.3828 9.7192 67.644 9.7632 67.9272 9.7632C68.3276 9.7632 68.7158 9.6875 69.0917 9.5361C69.4677 9.3848 69.7729 9.1577 70.0073 8.855L71.0253 9.9536C70.7665 10.3198 70.3564 10.6519 69.7949 10.9497C69.2333 11.2476 68.5693 11.3965 67.8027 11.3965ZM67.561 4.82666C67.3315 4.82666 67.1215 4.86816 66.9311 4.95117C66.7407 5.0293 66.5747 5.14404 66.4331 5.2954C66.2866 5.4468 66.1645 5.6274 66.0668 5.8374C65.9692 6.0474 65.8959 6.2817 65.8471 6.5405H69.187V6.3794C69.187 6.1646 69.1479 5.9619 69.0698 5.7715C68.9916 5.5811 68.8842 5.415 68.7475 5.2734C68.6108 5.13672 68.4423 5.0293 68.2421 4.95117C68.0468 4.86816 67.8198 4.82666 67.561 4.82666ZM73.3911 0H77.8222V9.5947H80.0927V11.25H73.3911V9.5947H75.7641V1.6626H73.3911V0ZM98.2419 10.0049C98.1099 10.166 97.9299 10.3296 97.6999 10.4956C97.4709 10.6616 97.1999 10.8105 96.8869 10.9424C96.5699 11.0791 96.2159 11.189 95.8251 11.272C95.4345 11.355 95.0146 11.3965 94.5654 11.3965C94.1748 11.3965 93.8061 11.3501 93.4594 11.2573C93.1176 11.1694 92.8027 11.04 92.5146 10.8691C92.2314 10.6934 91.9726 10.4785 91.7382 10.2246C91.5087 9.9707 91.3134 9.6802 91.1523 9.353C90.9667 8.9917 90.8251 8.584 90.7275 8.1299C90.6347 7.6758 90.5883 7.1826 90.5883 6.6504V5.2002C90.5883 4.69238 90.6347 4.22119 90.7275 3.78662C90.8203 3.34717 90.9521 2.94922 91.123 2.59277C91.2841 2.27539 91.4697 1.98975 91.6796 1.73584C91.8945 1.48193 92.1289 1.26221 92.3828 1.07666C92.6806 0.8667 93.0053 0.70801 93.3569 0.60059C93.7084 0.49316 94.0795 0.43945 94.4702 0.43945C95.0707 0.43945 95.5932 0.51514 96.0379 0.6665C96.4869 0.81787 96.8649 1.03516 97.1729 1.31836C97.4809 1.60645 97.7199 1.95557 97.8909 2.36572C98.0659 2.77588 98.1809 3.2373 98.2349 3.75H96.2279C96.1939 3.49121 96.1399 3.26172 96.0669 3.06152C95.9989 2.86133 95.9029 2.69287 95.7812 2.55615C95.6445 2.40479 95.4711 2.29248 95.2612 2.21924C95.0561 2.14111 94.8095 2.10205 94.5214 2.10205C94.3652 2.10205 94.2138 2.12646 94.0673 2.17529C93.9208 2.22412 93.7841 2.29492 93.6572 2.3877C93.4912 2.51465 93.3398 2.68066 93.2031 2.88574C93.0712 3.09082 92.9614 3.33252 92.8735 3.61084C92.8051 3.82568 92.7514 4.06494 92.7123 4.32861C92.6782 4.59229 92.6611 4.87793 92.6611 5.18555V6.6504C92.6611 7.0361 92.6855 7.3877 92.7343 7.7051C92.788 8.0225 92.8613 8.3032 92.954 8.5474C93.0126 8.689 93.0786 8.8208 93.1518 8.9429C93.2299 9.0601 93.3154 9.165 93.4081 9.2578C93.5644 9.4141 93.7451 9.5337 93.9501 9.6167C94.1601 9.6948 94.3969 9.7363 94.6606 9.7412C94.8217 9.7412 94.9804 9.729 95.1367 9.7046C95.2929 9.6802 95.4394 9.646 95.5761 9.6021C95.7128 9.5581 95.8325 9.5093 95.9349 9.4556C96.0429 9.397 96.1229 9.3359 96.1769 9.2725L96.1839 7.3389H94.4189V5.8008H98.2349L98.2419 10.0049ZM105.684 3.17871C105.991 3.17871 106.274 3.20068 106.533 3.24463C106.797 3.28369 107.009 3.32764 107.17 3.37646L106.87 5.4053C106.602 5.3418 106.326 5.2954 106.043 5.2661C105.764 5.23193 105.498 5.21484 105.244 5.21484C104.981 5.21484 104.741 5.23926 104.526 5.2881C104.316 5.332 104.128 5.4004 103.962 5.4932C103.762 5.6006 103.591 5.7373 103.45 5.9033C103.308 6.0693 103.191 6.2646 103.098 6.4893V11.25H101.062V3.3252H102.959L103.04 4.4458L103.054 4.62158C103.377 4.17236 103.762 3.8208 104.211 3.56689C104.661 3.30811 105.151 3.17871 105.684 3.17871ZM112.847 11.3965C112.236 11.3965 111.682 11.2964 111.184 11.0962C110.686 10.896 110.259 10.6226 109.902 10.2759C109.546 9.9341 109.27 9.5312 109.075 9.0674C108.884 8.5986 108.789 8.0981 108.789 7.5659V7.2729C108.789 6.6675 108.884 6.1157 109.075 5.6177C109.265 5.11475 109.531 4.68262 109.873 4.32129C110.215 3.95996 110.62 3.6792 111.089 3.479C111.558 3.27881 112.068 3.17871 112.62 3.17871C113.191 3.17871 113.699 3.27393 114.143 3.46436C114.592 3.6499 114.973 3.91357 115.286 4.25537C115.593 4.59717 115.828 5.00977 115.989 5.4932C116.15 5.9717 116.231 6.5015 116.231 7.0825V7.9468H110.855V7.9688C110.923 8.2861 111.011 8.5425 111.118 8.7378C111.226 8.9282 111.37 9.1016 111.55 9.2578C111.736 9.4189 111.948 9.5435 112.188 9.6313C112.427 9.7192 112.688 9.7632 112.971 9.7632C113.372 9.7632 113.76 9.6875 114.136 9.5361C114.512 9.3848 114.817 9.1577 115.051 8.855L116.069 9.9536C115.811 10.3198 115.4 10.6519 114.839 10.9497C114.277 11.2476 113.613 11.3965 112.847 11.3965ZM112.605 4.82666C112.376 4.82666 112.166 4.86816 111.975 4.95117C111.785 5.0293 111.619 5.14404 111.477 5.2954C111.331 5.4468 111.209 5.6274 111.111 5.8374C111.013 6.0474 110.94 6.2817 110.891 6.5405H114.231V6.3794C114.231 6.1646 114.192 5.9619 114.114 5.7715C114.036 5.5811 113.928 5.415 113.792 5.2734C113.655 5.13672 113.486 5.0293 113.286 4.95117C113.091 4.86816 112.864 4.82666 112.605 4.82666ZM117.805 7.229C117.805 6.6284 117.878 6.0791 118.025 5.5811C118.176 5.08301 118.391 4.65576 118.669 4.29932C118.948 3.94287 119.285 3.66699 119.68 3.47168C120.076 3.27637 120.523 3.17871 121.021 3.17871C121.289 3.17871 121.533 3.20557 121.753 3.25928C121.978 3.30811 122.18 3.38379 122.361 3.48633C122.498 3.55957 122.625 3.64746 122.742 3.75C122.859 3.84766 122.966 3.95752 123.064 4.07959L123.145 3.3252H124.998V10.9937C124.998 11.5308 124.905 12.0093 124.719 12.4292C124.539 12.8491 124.285 13.2031 123.958 13.4912C123.626 13.7793 123.228 13.9966 122.764 14.1431C122.305 14.2944 121.797 14.3701 121.24 14.3701C121.001 14.3701 120.745 14.3457 120.471 14.2969C120.198 14.248 119.927 14.1724 119.658 14.0698C119.39 13.9673 119.136 13.8354 118.897 13.6743C118.657 13.5181 118.452 13.3301 118.281 13.1104L119.197 11.8726C119.329 12.0239 119.47 12.1558 119.622 12.2681C119.773 12.3853 119.932 12.4805 120.098 12.5537C120.259 12.627 120.425 12.6807 120.596 12.7148C120.772 12.7539 120.952 12.7734 121.138 12.7734C121.436 12.7734 121.699 12.7319 121.929 12.6489C122.163 12.5659 122.358 12.4438 122.515 12.2827C122.656 12.1362 122.764 11.9556 122.837 11.7407C122.915 11.5259 122.954 11.2842 122.954 11.0156V10.5615C122.856 10.6689 122.754 10.7666 122.647 10.8545C122.539 10.9424 122.424 11.0205 122.302 11.0889C122.122 11.1865 121.921 11.2622 121.702 11.3159C121.487 11.3696 121.255 11.3965 121.006 11.3965C120.513 11.3965 120.068 11.2964 119.673 11.0962C119.282 10.8911 118.948 10.6104 118.669 10.2539C118.391 9.8975 118.176 9.4751 118.025 8.9868C117.878 8.4937 117.805 7.959 117.805 7.3828V7.229ZM119.849 7.3828C119.849 7.7148 119.88 8.0249 119.944 8.313C120.012 8.5962 120.115 8.8428 120.252 9.0527C120.388 9.2676 120.562 9.436 120.772 9.5581C120.981 9.6802 121.231 9.7412 121.519 9.7412C121.694 9.7412 121.853 9.7241 121.995 9.6899C122.141 9.6558 122.273 9.6069 122.39 9.5435C122.512 9.4751 122.62 9.3921 122.712 9.2944C122.805 9.1968 122.886 9.0869 122.954 8.9648V5.6104C122.881 5.4736 122.793 5.354 122.69 5.2515C122.588 5.14893 122.471 5.06592 122.339 5.00244C122.227 4.94873 122.102 4.90723 121.965 4.87793C121.834 4.84863 121.689 4.83398 121.533 4.83398C121.245 4.83398 120.996 4.89746 120.786 5.02441C120.576 5.14648 120.403 5.3149 120.266 5.5298C120.125 5.7495 120.02 6.0059 119.951 6.2988C119.883 6.5869 119.849 6.897 119.849 7.229V7.3828ZM126.814 7.229C126.814 6.6284 126.887 6.0791 127.034 5.5811C127.185 5.08301 127.4 4.65576 127.678 4.29932C127.957 3.94287 128.294 3.66699 128.689 3.47168C129.085 3.27637 129.531 3.17871 130.029 3.17871C130.298 3.17871 130.542 3.20557 130.762 3.25928C130.986 3.30811 131.189 3.38379 131.37 3.48633C131.506 3.55957 131.633 3.64746 131.751 3.75C131.868 3.84766 131.975 3.95752 132.073 4.07959L132.153 3.3252H134.006V10.9937C134.006 11.5308 133.914 12.0093 133.728 12.4292C133.547 12.8491 133.294 13.2031 132.966 13.4912C132.634 13.7793 132.236 13.9966 131.773 14.1431C131.314 14.2944 130.806 14.3701 130.249 14.3701C130.01 14.3701 129.753 14.3457 129.48 14.2969C129.207 14.248 128.936 14.1724 128.667 14.0698C128.398 13.9673 128.145 13.8354 127.905 13.6743C127.666 13.5181 127.461 13.3301 127.29 13.1104L128.206 11.8726C128.337 12.0239 128.479 12.1558 128.63 12.2681C128.782 12.3853 128.94 12.4805 129.106 12.5537C129.268 12.627 129.434 12.6807 129.605 12.7148C129.78 12.7539 129.961 12.7734 130.147 12.7734C130.444 12.7734 130.708 12.7319 130.938 12.6489C131.172 12.5659 131.367 12.4438 131.523 12.2827C131.665 12.1362 131.773 11.9556 131.846 11.7407C131.924 11.5259 131.963 11.2842 131.963 11.0156V10.5615C131.865 10.6689 131.763 10.7666 131.655 10.8545C131.548 10.9424 131.433 11.0205 131.311 11.0889C131.13 11.1865 130.93 11.2622 130.71 11.3159C130.496 11.3696 130.264 11.3965 130.015 11.3965C129.522 11.3965 129.077 11.2964 128.682 11.0962C128.291 10.8911 127.957 10.6104 127.678 10.2539C127.4 9.8975 127.185 9.4751 127.034 8.9868C126.887 8.4937 126.814 7.959 126.814 7.3828V7.229ZM128.857 7.3828C128.857 7.7148 128.889 8.0249 128.953 8.313C129.021 8.5962 129.124 8.8428 129.26 9.0527C129.397 9.2676 129.57 9.436 129.78 9.5581C129.99 9.6802 130.239 9.7412 130.527 9.7412C130.703 9.7412 130.862 9.7241 131.003 9.6899C131.15 9.6558 131.282 9.6069 131.399 9.5435C131.521 9.4751 131.628 9.3921 131.721 9.2944C131.814 9.1968 131.895 9.0869 131.963 8.9648V5.6104C131.89 5.4736 131.802 5.354 131.699 5.2515C131.597 5.14893 131.48 5.06592 131.348 5.00244C131.235 4.94873 131.111 4.90723 130.974 4.87793C130.842 4.84863 130.698 4.83398 130.542 4.83398C130.254 4.83398 130.005 4.89746 129.795 5.02441C129.585 5.14648 129.412 5.3149 129.275 5.5298C129.133 5.7495 129.028 6.0059 128.96 6.2988C128.892 6.5869 128.857 6.897 128.857 7.229V7.3828Z" fill="#F2F2F2"/>
<path d="M145.11 6.58829C145.665 6.99889 145.746 7.75349 145.292 8.27359C144.838 8.79369 144.021 8.88239 143.466 8.47179L145.11 6.58829ZM143.466 8.47179L138.321 4.66463L139.965 2.78113L145.11 6.58829L143.466 8.47179Z" fill="#5CC4C4"/>
<path d="M143.577 6.49534C144.184 6.16754 144.977 6.37404 145.348 6.95654C145.718 7.53904 145.526 8.27694 144.919 8.60464L143.577 6.49534ZM144.919 8.60464L139.286 11.643L137.944 9.53374L143.577 6.49534L144.919 8.60464Z" fill="#5CC4C4"/>
</g>
<defs>
<filter id="filter0_b_673_62" x="-4" y="-4" width="153.586" height="22.3701" filterUnits="userSpaceOnUse" color-interpolation-filters="sRGB">
<feFlood flood-opacity="0" result="BackgroundImageFix"/>
<feGaussianBlur in="BackgroundImageFix" stdDeviation="2"/>
<feComposite in2="SourceAlpha" operator="in" result="effect1_backgroundBlur_673_62"/>
<feBlend mode="normal" in="SourceGraphic" in2="effect1_backgroundBlur_673_62" result="shape"/>
</filter>
</defs>
</svg>
