<svg width="1174" height="1043" viewBox="0 0 1174 1043" fill="none" xmlns="http://www.w3.org/2000/svg">
<path fill-rule="evenodd" clip-rule="evenodd" d="M321.235 2.493C311.047 5.126 296.311 11.708 287.302 17.651C279.609 22.726 265.109 36.746 259.09 44.93C221.066 96.627 214.737 187.084 240.991 303.59C243.211 313.441 245.255 322.219 245.533 323.099C245.93 324.355 244.376 325.185 238.269 326.978C143.963 354.662 71.5152 394.171 34.2492 438.239C11.5772 465.05 0.596191 492.217 0.596191 521.5C0.596191 555.29 15.1342 586.282 44.9432 616.039C77.0482 648.088 123.911 675.453 187 698.991C201.981 704.58 222.14 711.275 238.296 716.026C243.314 717.502 245.927 718.749 245.629 719.526C245.374 720.19 243.123 729.905 240.627 741.116C214.391 858.962 221.622 951.181 260.948 1000.3C277.403 1020.85 298.105 1034.59 321.601 1040.55C330.431 1042.79 333.177 1043 353.721 1043C380.176 1043 388.004 1041.77 411.127 1033.99C461.898 1016.92 523.217 976.365 577.202 924.171L586.905 914.79L596.707 924.145C662.678 987.105 732.255 1029.64 787.777 1040.95C796.129 1042.66 801.586 1043 820.279 1043C840.823 1043 843.569 1042.79 852.399 1040.55C883.945 1032.55 910.946 1009.99 926.902 978.302C950.81 930.826 955.31 864.236 940.477 777.41C937.62 760.684 930.337 725.809 928.467 719.901C928.07 718.645 929.623 717.816 935.731 716.026C984.158 701.831 1031.11 682.724 1065.5 663.211C1077.56 656.372 1100.42 641.04 1110 633.379C1126.54 620.146 1144.07 601.108 1154.18 585.409C1158.91 578.067 1165.07 564.97 1167.94 556.146C1171.86 544.1 1173.4 534.323 1173.4 521.5C1173.4 508.677 1171.86 498.9 1167.94 486.854C1153.5 442.479 1111.44 402.241 1044.5 368.746C1013.65 353.307 968.493 335.996 934.227 326.468C929.329 325.106 928.065 324.37 928.463 323.112C930.336 317.193 937.617 282.334 940.477 265.59C955.31 178.764 950.81 112.174 926.902 64.698C920.671 52.323 914.213 43.2 904.69 33.32C889.931 18.008 871.998 7.421 852.399 2.449C843.569 0.209 840.823 0 820.279 0C801.586 0 796.129 0.343 787.777 2.045C732.755 13.258 663.382 55.447 598.343 117.25C592.7 122.613 587.546 127 586.89 127C586.233 127 581.602 123.058 576.598 118.241C521.533 65.226 459.69 24.617 409 8.189C387.219 1.129 379.448 -0.007 353.343 0.049C332.587 0.094 329.654 0.317 321.235 2.493ZM375.958 52.452C422.543 62.498 480.022 98.375 541.764 155.941L551.354 164.882L544.927 171.711C523.757 194.206 488.551 237.555 463.419 272.073L452.081 287.646L440.79 288.868C397.672 293.534 354.893 299.962 320.367 306.96C309.44 309.175 299.517 311.26 298.315 311.593C295.763 312.301 295.805 312.426 290.529 288.777C286.172 269.253 282.621 248.968 279.801 227.5C277.881 212.886 277.563 205.798 277.535 177C277.505 146.323 277.696 142.429 279.8 130.787C284.211 106.387 291.473 87.395 301.401 74.294C310.865 61.804 325.629 53.092 341.5 50.63C347.282 49.733 368.572 50.859 375.958 52.452ZM841 52.526C869.263 61.091 886.066 85.809 894.201 130.787C896.309 142.444 896.496 146.283 896.455 177C896.417 205.597 896.089 212.934 894.216 227.128C891.302 249.205 887.658 270.133 883.484 288.777C878.214 312.31 878.285 312.103 875.709 311.505C842.203 303.725 791.322 295.396 746.693 290.384L721.885 287.599L710.564 272.049C685.464 237.575 650.238 194.2 629.101 171.74L622.702 164.941L632.204 156.023C662.338 127.741 692.69 103.822 721 86.047C746.773 69.864 781.286 55.186 801 52.023C805.125 51.361 809.175 50.657 810 50.457C813.866 49.524 835.957 50.998 841 52.526ZM595.653 211.326C613.127 230.989 650.517 276.422 652.992 281C653.709 282.326 646.074 282.5 587 282.5C527.925 282.5 520.291 282.326 521.01 281C522.743 277.799 552.96 240.676 566.591 225C586.724 201.848 586.446 202.159 587 202.155C587.275 202.153 591.169 206.28 595.653 211.326ZM659 334.963C668.625 335.498 680.343 336.225 685.041 336.58L693.582 337.225L707.188 357.863C736.81 402.795 767.982 457.002 793.45 507.871C800.702 522.357 800.62 520.44 794.52 532.869C771.584 579.604 737.892 638.421 708.16 683.628L693.607 705.757L685.554 706.371C631.056 710.524 545.299 710.525 488.948 706.373L480.397 705.743L466.807 685.122C440.991 645.947 416.498 604.137 392.924 559C385.312 544.425 377.973 529.975 376.616 526.889L374.148 521.278L379.408 510.389C396.42 475.169 426.252 421.858 451.813 381C458.033 371.057 479.14 338.814 480.38 337.359C480.711 336.972 518.063 334.731 536.5 333.992C561.264 333.001 634.047 333.578 659 334.963ZM412.773 346.25C396.437 371.475 362.987 429.182 351.662 451.676C347.863 459.222 346.537 460.795 345.704 458.744C325.919 410.012 309.034 362.267 311.307 361.482C319.276 358.73 402.042 344.406 411.865 344.079C414.086 344.005 414.141 344.137 412.773 346.25ZM780.157 346.511C806.971 350.394 856.713 359.416 862.694 361.482C864.516 362.111 850.246 403.888 836.084 439.385C827 462.154 827.569 461.179 825.518 457.477C824.612 455.839 819.127 445.725 813.331 435C800.927 412.049 784.476 383.657 771.032 362C765.74 353.475 761.066 345.938 760.646 345.25C759.619 343.57 760.032 343.597 780.157 346.511ZM266.042 392.75C278.018 428.923 295.399 473.44 311.406 508.938L317.015 521.377L309.888 537.438C293.19 575.067 277.623 615.166 265.558 651.626L259.89 668.751L244.085 663.905C136.364 630.872 66.0642 583.67 53.9302 536.226C40.0252 481.86 106.048 424.459 229 384.017C241.925 379.766 254.075 375.819 256 375.246C257.925 374.673 259.575 374.158 259.667 374.102C259.759 374.046 262.627 382.438 266.042 392.75ZM953.5 386.718C1047.6 418.937 1108.91 463.122 1120.07 506.774C1134.82 564.458 1059.78 625.009 922.301 666.342L914.102 668.807L907.921 650.153C896.172 614.696 880.62 574.687 864.106 537.438L856.985 521.377L862.594 508.938C878.334 474.032 896.079 428.585 907.915 392.863L914.091 374.227L925.795 377.733C932.233 379.662 944.7 383.705 953.5 386.718ZM566 418.959C546.239 423.185 529.524 431.937 514.942 445.693C488.733 470.417 477.055 507.608 484.455 542.784C494.689 591.435 537.282 626 587 626C614.404 626 639.041 616.189 659.058 597.307C674.445 582.791 684.796 564.305 689.693 542.593C691.856 533.005 691.856 509.995 689.693 500.407C680.076 457.77 648.064 426.539 605.75 418.512C594.954 416.464 576.705 416.669 566 418.959ZM352.208 592.255C363.35 614.131 388.607 658.012 407.318 688C410.921 693.775 413.501 698.633 413.051 698.795C410.152 699.838 320.057 684.54 311.307 681.518C309.033 680.733 325.88 633.096 345.707 584.25C346.644 581.94 347.48 582.969 352.208 592.255ZM836.078 603.615C850.482 639.745 864.536 680.882 862.693 681.518C853.594 684.661 761.85 700.198 760.497 698.826C760.32 698.647 764.909 690.85 770.694 681.5C785.305 657.884 800.902 630.998 813.331 608C819.127 597.275 824.612 587.161 825.518 585.523C827.57 581.82 827.002 580.849 836.078 603.615ZM322.5 736.427C356.988 743.338 398.118 749.493 440.79 754.128L452.081 755.354L463.419 770.927C488.52 805.402 523.755 848.792 544.867 871.226L551.235 877.992L541.867 886.855C463.617 960.895 386.592 1000.69 339.054 991.644C317.845 987.607 303.381 975.759 292.488 953.5C286.325 940.907 283.069 930.305 279.805 912.213C277.717 900.632 277.513 896.562 277.52 866.5C277.528 830.738 278.336 820.966 284.078 787.153C286.745 771.45 292.219 745.327 295.034 734.874C295.981 731.358 296.43 730.884 298.315 731.41C299.517 731.744 310.4 734.002 322.5 736.427ZM878.993 734.973C884.162 754.169 890.558 788.162 894.216 815.872C896.089 830.066 896.417 837.403 896.455 866C896.496 896.717 896.309 900.556 894.201 912.213C890.11 934.832 883.501 953.145 874.935 965.595C865.569 979.208 851.178 988.596 835 991.648C787.303 1000.64 710.631 961.042 632.177 886.888L622.853 878.075L633.028 866.872C657.999 839.375 686.003 804.626 712.907 767.75C718.303 760.355 722.901 755 723.855 755C727.911 754.999 772.397 749.64 790.5 746.972C816.384 743.156 847.221 737.674 863 734.083C869.875 732.519 876.045 731.185 876.711 731.119C877.378 731.054 878.404 732.788 878.993 734.973ZM652.966 762C649.814 767.646 604.425 822.418 591.899 835.69L587 840.88L582.101 835.69C569.63 822.476 523.956 767.377 521.017 762C520.292 760.673 527.922 760.5 587 760.5C646.086 760.5 653.706 760.673 652.966 762Z" fill="#61DAFB"/>
</svg>
