<svg width="793" height="635" viewBox="0 0 793 635" fill="none" xmlns="http://www.w3.org/2000/svg">
<rect x="620" y="85" width="154" height="467" fill="#252E3B"/>
<rect y="55" width="45" height="580" fill="#252E3B"/>
<rect x="45" y="74" width="46" height="561" fill="#252E3B"/>
<rect x="91" y="55" width="46" height="580" fill="#252E3B"/>
<rect x="137" y="19" width="33" height="606" fill="#252E3B"/>
<rect x="170" y="19" width="12" height="545" fill="#252E3B"/>
<rect x="182" width="44" height="564" fill="#252E3B"/>
<rect x="226" y="55" width="39" height="570" fill="#252E3B"/>
<rect x="217" y="564" width="9" height="61" fill="#252E3B"/>
<rect x="265" y="558" width="42" height="47" fill="#252E3B"/>
<rect x="265" y="55" width="235" height="503" fill="#252E3B"/>
<rect x="353" y="558" width="86" height="68" fill="#252E3B"/>
<rect x="546" y="76" width="81" height="468" fill="#252E3B"/>
<rect x="587" y="55" width="35" height="21" fill="#252E3B"/>
<rect x="500" y="104" width="46" height="440" fill="#252E3B"/>
<rect x="581" y="544" width="42" height="81" fill="#252E3B"/>
<rect x="623" y="544" width="92" height="91" fill="#252E3B"/>
<rect x="715" y="87" width="45" height="538" fill="#252E3B"/>
<rect x="774" y="55" width="19" height="550" fill="#252E3B"/>
<rect x="760" y="522" width="14" height="83" fill="#252E3B"/>
<rect x="622" y="55" width="104" height="48" fill="#252E3B"/>
<rect y="146" width="83" height="393" fill="#2A3443"/>
<rect x="83" y="91" width="89" height="521" fill="#2A3443"/>
<rect x="266" y="35" width="88" height="521" fill="#2A3443"/>
<rect x="440" y="68" width="88" height="560" fill="#2A3443"/>
<rect x="624" y="15" width="88" height="560" fill="#2A3443"/>
<rect x="172" y="128" width="94" height="393" fill="#2A3443"/>
<rect x="354" y="109" width="86" height="447" fill="#2A3443"/>
<rect x="528" y="105" width="96" height="433" fill="#2A3443"/>
<rect x="712" y="85" width="79" height="435" fill="#2A3443"/>
</svg>
